<svg width="166" height="63" viewBox="0 0 166 63" fill="none" xmlns="http://www.w3.org/2000/svg">
<path fill-rule="evenodd" clip-rule="evenodd" d="M3.41513 3.41513C0 6.83027 0 12.3268 0 23.32V25.68C0 36.6732 0 42.1697 3.41513 45.5849C6.20723 48.377 10.3906 48.8863 17.8315 48.9793C18.053 49.239 18.2554 49.517 18.4362 49.8112L25.4755 61.2772C26.7917 63.4207 30.032 63.063 30.8424 60.6852L34.8209 49H142.68C153.673 49 159.17 49 162.585 45.5849C166 42.1697 166 36.6732 166 25.68V23.32C166 12.3268 166 6.83027 162.585 3.41513C159.17 0 153.673 0 142.68 0H23.32C12.3268 0 6.83027 0 3.41513 3.41513Z" fill="#1F3374"/>
<path d="M77.3594 24.5C77.3594 21.7225 77.9993 19.231 79.2791 17.0254C80.5861 14.8197 82.3425 13.1042 84.5481 11.8789C86.781 10.6263 89.2181 10 91.8594 10C94.8819 10 97.5641 10.7488 99.9059 12.2465C102.275 13.7169 103.99 15.8136 105.052 18.5366H99.4566C98.7213 17.039 97.7002 15.9225 96.3932 15.1873C95.0861 14.4521 93.5749 14.0845 91.8594 14.0845C89.9805 14.0845 88.3059 14.5066 86.8354 15.3507C85.365 16.1948 84.2077 17.4066 83.3636 18.9859C82.5467 20.5653 82.1382 22.4033 82.1382 24.5C82.1382 26.5967 82.5467 28.4347 83.3636 30.0141C84.2077 31.5934 85.365 32.8188 86.8354 33.6901C88.3059 34.5343 89.9805 34.9563 91.8594 34.9563C93.5749 34.9563 95.0861 34.5887 96.3932 33.8535C97.7002 33.1183 98.7213 32.0019 99.4566 30.5042H105.052C103.99 33.2272 102.275 35.3239 99.9059 36.7944C97.5641 38.2648 94.8819 39 91.8594 39C89.1908 39 86.7537 38.3873 84.5481 37.162C82.3425 35.9094 80.5861 34.1803 79.2791 31.9746C77.9993 29.769 77.3594 27.2775 77.3594 24.5Z" fill="#04C3FF"/>
<path d="M24.9459 38C22.4902 38 20.2243 37.4304 18.1484 36.2911C16.0978 35.1266 14.4648 33.519 13.2497 31.4684C12.0598 29.3924 11.4648 27.0633 11.4648 24.481C11.4648 21.8987 12.0598 19.5823 13.2497 17.5316C14.4648 15.481 16.0978 13.8861 18.1484 12.7468C20.2243 11.5823 22.4902 11 24.9459 11C27.4269 11 29.6927 11.5823 31.7433 12.7468C33.8193 13.8861 35.4522 15.481 36.6421 17.5316C37.8319 19.5823 38.4269 21.8987 38.4269 24.481C38.4269 27.0633 37.8319 29.3924 36.6421 31.4684C35.4522 33.519 33.8193 35.1266 31.7433 36.2911C29.6927 37.4304 27.4269 38 24.9459 38ZM24.9459 34.2405C26.6927 34.2405 28.2497 33.8481 29.6167 33.0633C30.9838 32.2532 32.0471 31.1139 32.8066 29.6456C33.5914 28.1519 33.9838 26.4304 33.9838 24.481C33.9838 22.5316 33.5914 20.8228 32.8066 19.3544C32.0471 17.8861 30.9838 16.7595 29.6167 15.9747C28.2497 15.1899 26.6927 14.7975 24.9459 14.7975C23.199 14.7975 21.6421 15.1899 20.275 15.9747C18.9079 16.7595 17.8319 17.8861 17.0471 19.3544C16.2876 20.8228 15.9079 22.5316 15.9079 24.481C15.9079 26.4304 16.2876 28.1519 17.0471 29.6456C17.8319 31.1139 18.9079 32.2532 20.275 33.0633C21.6421 33.8481 23.199 34.2405 24.9459 34.2405Z" fill="white"/>
<path d="M42.3145 11.828V36.5328H46.9883V11.828H42.3145Z" fill="white"/>
<path d="M64.6445 17.5714V20.2093C64.0215 19.3629 63.1934 18.661 62.1577 18.1063C61.122 17.5491 59.9154 17.2717 58.5353 17.2717C56.9541 17.2717 55.5254 17.6608 54.2452 18.4376C52.965 19.217 51.953 20.3316 51.2064 21.7774C50.4625 23.2232 50.0879 24.8832 50.0879 26.7509C50.0879 28.6186 50.4625 30.3181 51.2064 31.7757C51.953 33.2334 52.965 34.3637 54.2452 35.1655C55.5254 35.9673 56.9423 36.3668 58.5025 36.3668C59.8825 36.3668 61.101 36.0829 62.1577 35.5164C63.2145 34.9473 64.0451 34.2297 64.6445 33.3622L62.1748 31.6101C61.419 32.0439 60.6054 32.2594 59.738 32.2594C58.8705 32.2594 58.095 32.0386 57.3511 31.593C56.6045 31.1475 56.0052 30.5074 55.5478 29.6728C55.093 28.8381 54.8656 27.8642 54.8656 26.7496C54.8656 25.635 55.093 24.6755 55.5478 23.862C56.0052 23.0484 56.6006 22.4332 57.3353 22.0087C58.07 21.5868 58.8718 21.3752 59.7393 21.3752C60.6068 21.3752 61.4203 21.5907 62.1761 22.0271C62.9319 22.4608 63.5338 23.0838 63.9794 23.8948C64.4224 24.7084 64.6458 25.6823 64.6458 26.818C64.6458 27.9536 64.4224 28.9249 63.9794 29.7385L64.6458 33.3609V36.0658H69.3539V17.5701H64.6458L64.6445 17.5714Z" fill="white"/>
<path d="M107.345 17.5221V36.0179H112.018V17.5221H107.345ZM111.767 10.6296C111.222 10.1052 110.537 9.84491 109.714 9.84491C108.892 9.84491 108.207 10.1052 107.661 10.6296C107.116 11.154 106.844 11.8033 106.844 12.5827C106.844 13.3621 107.116 14.0114 107.661 14.5359C108.207 15.0577 108.892 15.3206 109.714 15.3206C110.537 15.3206 111.222 15.0577 111.767 14.5359C112.313 14.0114 112.585 13.3621 112.585 12.5827C112.585 11.8033 112.313 11.154 111.767 10.6296Z" fill="#04C3FF"/>
<path d="M129.174 17.0533V19.6912C128.551 18.8448 127.723 18.1429 126.687 17.5882C125.651 17.0309 124.445 16.7536 123.065 16.7536C121.483 16.7536 120.055 17.1427 118.775 17.9194C117.494 18.6989 116.482 19.8134 115.736 21.2592C114.992 22.705 114.617 24.3651 114.617 26.2328C114.617 28.1005 114.992 29.8 115.736 31.2576C116.482 32.7152 117.494 33.8456 118.775 34.6474C120.055 35.4491 121.472 35.8487 123.032 35.8487C124.412 35.8487 125.63 35.5648 126.687 34.9983C127.744 34.4292 128.574 33.7115 129.174 32.8441L126.704 31.092C125.948 31.5257 125.135 31.7413 124.267 31.7413C123.4 31.7413 122.624 31.5205 121.88 31.0749C121.134 30.6293 120.534 29.9893 120.077 29.1546C119.622 28.32 119.395 27.3461 119.395 26.2315C119.395 25.1169 119.622 24.1574 120.077 23.3438C120.534 22.5302 121.13 21.9151 121.865 21.4906C122.599 21.0687 123.401 20.857 124.269 20.857C125.136 20.857 125.95 21.0726 126.705 21.509C127.461 21.9427 128.063 22.5657 128.509 23.3767C128.952 24.1903 129.175 25.1642 129.175 26.2998C129.175 27.4354 128.952 28.4068 128.509 29.2203L129.175 32.8427V35.5477H133.883V17.052H129.175L129.174 17.0533Z" fill="#04C3FF"/>
<path d="M153.119 21.2934C152.284 19.8476 151.144 18.7291 149.699 17.9365C148.25 17.1466 146.639 16.7536 144.856 16.7536C143.074 16.7536 141.464 17.1466 140.016 17.9365C138.57 18.7278 137.429 19.8476 136.596 21.2934C135.761 22.7392 135.342 24.4111 135.342 26.3025C135.342 28.1938 135.749 29.8631 136.563 31.3089C137.374 32.7573 138.492 33.8758 139.917 34.6658C141.342 35.4557 142.944 35.8513 144.724 35.8513C146.503 35.8513 148.156 35.4557 149.616 34.6658C151.071 33.8758 152.23 32.7573 153.086 31.3089C153.944 29.8631 154.372 28.1938 154.372 26.3025C154.372 24.4111 153.953 22.7392 153.119 21.2934ZM148.897 29.3058C148.451 30.1312 147.856 30.7463 147.109 31.159C146.365 31.5717 145.569 31.7755 144.722 31.7755C143.388 31.7755 142.28 31.3036 141.401 30.3586C140.522 29.4122 140.08 28.0598 140.08 26.3025C140.08 24.5452 140.532 23.1927 141.434 22.2437C142.334 21.2974 143.454 20.8268 144.788 20.8268C146.122 20.8268 147.254 21.2987 148.178 22.2437C149.101 23.1914 149.562 24.5425 149.562 26.3025C149.562 27.4801 149.338 28.483 148.896 29.3058H148.897Z" fill="#04C3FF"/>
</svg>
