<svg xmlns="http://www.w3.org/2000/svg" width="16" height="16" viewBox="0 0 16 16" fill="none">
<g clip-path="url(#clip0_2024_10565)">
<path d="M15 14H3.66667C3.22464 14 2.80072 13.8244 2.48816 13.5118C2.17559 13.1993 2 12.7754 2 12.3333V1C2 0.734784 1.89464 0.48043 1.70711 0.292893C1.51957 0.105357 1.26522 0 1 0C0.734784 0 0.48043 0.105357 0.292893 0.292893C0.105357 0.48043 0 0.734784 0 1L0 12.3333C0.00105878 13.3055 0.387707 14.2375 1.07511 14.9249C1.76252 15.6123 2.69453 15.9989 3.66667 16H15C15.2652 16 15.5196 15.8946 15.7071 15.7071C15.8946 15.5196 16 15.2652 16 15C16 14.7348 15.8946 14.4804 15.7071 14.2929C15.5196 14.1054 15.2652 14 15 14Z" fill="#1F3374"/>
<path d="M14.9998 2.65063H12.9425C12.8107 2.65066 12.6818 2.68978 12.5722 2.76303C12.4626 2.83629 12.3771 2.9404 12.3267 3.0622C12.2763 3.184 12.2631 3.31802 12.2888 3.44732C12.3145 3.57662 12.3779 3.6954 12.4712 3.78863L12.9598 4.27663L10.5685 6.66664C10.5375 6.69768 10.5007 6.72231 10.4602 6.73911C10.4197 6.75591 10.3763 6.76456 10.3325 6.76456C10.2886 6.76456 10.2452 6.75591 10.2047 6.73911C10.1642 6.72231 10.1275 6.69768 10.0965 6.66664L9.98315 6.5533C9.53873 6.12875 8.94777 5.89184 8.33315 5.89184C7.71854 5.89184 7.12757 6.12875 6.68315 6.5533L3.94982 9.28664C3.85431 9.37888 3.77813 9.48923 3.72572 9.61123C3.67331 9.73323 3.64572 9.86445 3.64457 9.99723C3.64342 10.13 3.66872 10.2617 3.719 10.3846C3.76928 10.5075 3.84353 10.6191 3.93742 10.713C4.03132 10.8069 4.14297 10.8812 4.26587 10.9315C4.38876 10.9817 4.52044 11.007 4.65322 11.0059C4.786 11.0047 4.91722 10.9771 5.03922 10.9247C5.16123 10.8723 5.27157 10.7961 5.36382 10.7006L8.09715 7.9673C8.12812 7.93626 8.1649 7.91163 8.2054 7.89483C8.24589 7.87802 8.28931 7.86937 8.33315 7.86937C8.377 7.86937 8.42041 7.87802 8.46091 7.89483C8.50141 7.91163 8.53819 7.93626 8.56915 7.9673L8.68249 8.08064C9.12706 8.50489 9.71797 8.74159 10.3325 8.74159C10.947 8.74159 11.5379 8.50489 11.9825 8.08064L14.3732 5.69064L14.8612 6.1793C14.9544 6.27274 15.0732 6.33641 15.2026 6.36225C15.332 6.3881 15.4662 6.37495 15.5881 6.32447C15.7101 6.274 15.8143 6.18847 15.8876 6.07872C15.9609 5.96897 15.9999 5.83994 15.9998 5.70797V3.65063C15.9998 3.38542 15.8945 3.13106 15.7069 2.94353C15.5194 2.75599 15.265 2.65063 14.9998 2.65063Z" fill="#1F3374"/>
</g>
<defs>
<clipPath id="clip0_2024_10565">
<rect width="16" height="16" fill="white"/>
</clipPath>
</defs>
</svg>