<svg width="19" height="20" viewBox="0 0 19 20" fill="none" xmlns="http://www.w3.org/2000/svg">
<g clip-path="url(#clip0_3275_15489)">
<path fill-rule="evenodd" clip-rule="evenodd" d="M15.802 2.41104C15.802 1.60127 16.4589 0.944824 17.2692 0.944824C18.0796 0.944824 18.7365 1.60127 18.7365 2.41104C18.7365 3.22081 18.0796 3.87726 17.2692 3.87726C17.037 3.87726 16.8176 3.82313 16.6224 3.72719L13.7634 6.16272C13.8165 6.3143 13.8457 6.47709 13.8457 6.64675C13.8457 7.45653 13.1888 8.11297 12.3784 8.11297C11.5681 8.11297 10.9112 7.45653 10.9112 6.64675C10.9112 6.64097 10.9114 6.63524 10.9116 6.6295C10.9117 6.6258 10.9118 6.6221 10.9119 6.61839L8.47081 5.61863C8.20343 5.90051 7.82545 6.07659 7.4061 6.07659C7.06337 6.07659 6.74838 5.95885 6.49865 5.7621L3.96254 7.26159C3.97548 7.33987 3.98251 7.42013 3.98251 7.50208C3.98251 8.31185 3.32564 8.9683 2.51529 8.9683C1.70494 8.9683 1.04803 8.31185 1.04803 7.50208C1.04803 6.69231 1.70494 6.03586 2.51529 6.03586C2.85799 6.03586 3.17298 6.1536 3.4227 6.35035L5.95881 4.85086C5.94587 4.77258 5.93884 4.69232 5.93884 4.61037C5.93884 3.8006 6.59571 3.14415 7.40606 3.14415C8.21641 3.14415 8.87332 3.8006 8.87332 4.61037C8.87332 4.61619 8.87312 4.62194 8.87292 4.6277C8.87279 4.63139 8.87266 4.63507 8.87259 4.63877L11.3137 5.63853C11.5811 5.35666 11.959 5.18057 12.3784 5.18057C12.6309 5.18057 12.8686 5.24437 13.0761 5.35669L15.9039 2.94779C15.8383 2.78152 15.802 2.60057 15.802 2.41104ZM18.8171 6.31574H15.9191V19.0282H18.8171V6.31574ZM5.95031 8.09317H8.84828V19.0282H5.95031V8.09317ZM10.9356 10.4116H13.8336V19.0283H10.9356V10.4116ZM0.966797 12.2276H3.86477V19.0282H0.966797V12.2276Z" fill="currentColor"/>
</g>
<defs>
<clipPath id="clip0_3275_15489">
<rect width="18.0833" height="18.0833" fill="white" transform="translate(0.849609 0.944824)"/>
</clipPath>
</defs>
</svg>
