<svg width="19" height="19" viewBox="0 0 19 19" fill="none" xmlns="http://www.w3.org/2000/svg">
<g clip-path="url(#clip0_3275_15545)">
<path fill-rule="evenodd" clip-rule="evenodd" d="M11.5463 8.29648C11.2973 8.29648 11.0949 8.0941 11.0949 7.8451C11.0949 7.59611 11.2973 7.39373 11.5463 7.39373C11.7953 7.39373 11.9977 7.59646 11.9977 7.8451C11.9977 8.09375 11.7953 8.29648 11.5463 8.29648ZM8.23726 7.0416C7.98826 7.0416 7.78588 6.83887 7.78588 6.59022C7.78588 6.34157 7.98826 6.13849 8.23726 6.13849C8.48626 6.13849 8.68864 6.34122 8.68864 6.59022C8.68864 6.83922 8.48591 7.0416 8.23726 7.0416ZM4.92787 9.30095C4.67922 9.30095 4.47649 9.09822 4.47649 8.84922C4.47649 8.60022 4.67922 8.39785 4.92787 8.39785C5.17651 8.39785 5.3796 8.60058 5.3796 8.84922C5.3796 9.09787 5.17687 9.30095 4.92787 9.30095ZM14.8868 5.12519L14.1666 5.01746C14.0508 5.00016 13.943 5.07998 13.9257 5.19547C13.9084 5.31132 13.9883 5.41904 14.1041 5.4367L14.327 5.4699L12.0944 7.16345C11.9443 7.04266 11.7536 6.9699 11.5463 6.9699C11.2493 6.9699 10.9861 7.11895 10.8279 7.34605L9.10611 6.693C9.10999 6.65909 9.11246 6.62483 9.11246 6.59022C9.11246 6.10741 8.71972 5.71466 8.23726 5.71466C7.7548 5.71466 7.36205 6.10741 7.36205 6.59022C7.36205 6.69688 7.38113 6.79931 7.41645 6.89396L5.50922 8.19582C5.35452 8.05808 5.15108 7.97402 4.92751 7.97402C4.44506 7.97402 4.05231 8.36677 4.05231 8.84922C4.05231 9.33168 4.44506 9.72478 4.92751 9.72478C5.40997 9.72478 5.80307 9.33204 5.80307 8.84922C5.80307 8.74256 5.78365 8.64013 5.74833 8.54548L7.65556 7.24362C7.81025 7.38137 8.01369 7.46543 8.23691 7.46543C8.53394 7.46543 8.79707 7.31638 8.9553 7.08928L10.6771 7.74233C10.6174 8.26999 11.0264 8.72031 11.5459 8.72031C12.0288 8.72031 12.4211 8.32792 12.4211 7.8451C12.4211 7.7229 12.3961 7.60635 12.3505 7.50074L14.5685 5.8185L14.5378 6.0237C14.5205 6.1392 14.6 6.24727 14.7158 6.26458C14.8313 6.28153 14.9394 6.20206 14.9567 6.08622L15.0648 5.36642C15.0821 5.25057 15.0023 5.14249 14.8864 5.12519H14.8868ZM12.6136 2.88985H16.6859C17.0578 2.88985 17.3605 2.58716 17.3605 2.21525C17.3605 1.84334 17.0578 1.54066 16.6859 1.54066H12.6136C12.2417 1.54066 11.939 1.84334 11.939 2.21525C11.939 2.58716 12.2417 2.88985 12.6136 2.88985ZM7.16992 2.88985C7.54183 2.88985 7.84451 2.58716 7.84451 2.21525C7.84451 1.84334 7.54183 1.54066 7.16992 1.54066C6.79801 1.54066 6.49533 1.84299 6.49533 2.21525C6.49533 2.58752 6.79801 2.88985 7.16992 2.88985ZM5.13378 2.88985C5.50569 2.88985 5.80837 2.58716 5.80837 2.21525C5.80837 1.84334 5.50569 1.54066 5.13378 1.54066C4.76187 1.54066 4.45918 1.84299 4.45918 2.21525C4.45918 2.58752 4.76187 2.88985 5.13378 2.88985ZM3.09764 2.88985C3.46955 2.88985 3.77223 2.58716 3.77223 2.21525C3.77223 1.84334 3.46955 1.54066 3.09764 1.54066C2.72573 1.54066 2.42304 1.84299 2.42304 2.21525C2.42304 2.58752 2.72573 2.88985 3.09764 2.88985ZM17.3082 14.1033C17.7759 14.1033 18.1559 13.7229 18.1559 13.2556V3.96566H1.62695V13.2556C1.62695 13.7229 2.00734 14.1033 2.47461 14.1033H3.65497V12.515C3.65497 12.2035 3.90856 11.9499 4.22007 11.9499H5.63566C5.94717 11.9499 6.20077 12.2035 6.20077 12.515V14.1033H6.96366V9.96601C6.96366 9.65414 7.21725 9.40091 7.52876 9.40091H8.9447C9.25621 9.40091 9.5098 9.65414 9.5098 9.96601V14.1033H10.273V11.382C10.273 11.0704 10.5266 10.8172 10.8382 10.8172H12.2541C12.5656 10.8172 12.8192 11.0704 12.8192 11.382V14.1033H13.5821V8.54972C13.5821 8.2382 13.8357 7.98461 14.1472 7.98461H15.5631C15.8746 7.98461 16.1282 8.2382 16.1282 8.54972V14.1033H17.3082ZM12.8192 14.5271H13.5821V17.418H12.8192V14.5271ZM9.5098 14.5271H10.273V17.418H9.5098V14.5271ZM6.20077 14.5271H6.96366V17.418H6.20077V14.5271ZM2.47461 0.888672H17.3082C17.7759 0.888672 18.1559 1.26906 18.1559 1.73633V3.54184H1.62695V1.73633C1.62695 1.26906 2.00734 0.888672 2.47461 0.888672ZM17.3082 0.464844H2.47461C1.77353 0.464844 1.20312 1.03525 1.20312 1.73633V13.2556C1.20312 13.9567 1.77353 14.5271 2.47461 14.5271H3.65497V17.418H2.39655C2.27965 17.418 2.18464 17.513 2.18464 17.6299C2.18464 17.7468 2.27965 17.8418 2.39655 17.8418H17.387C17.5039 17.8418 17.5989 17.7468 17.5989 17.6299C17.5989 17.513 17.5039 17.418 17.387 17.418H16.1286V14.5271H17.3086C18.01 14.5271 18.5801 13.9567 18.5801 13.2556V1.73633C18.5801 1.03525 18.01 0.464844 17.3086 0.464844H17.3082Z" fill="currentColor"/>
</g>
<defs>
<clipPath id="clip0_3275_15545">
<rect width="18.0833" height="18.0833" fill="white" transform="translate(0.849609 0.111572)"/>
</clipPath>
</defs>
</svg>
