<svg width="26" height="22" viewBox="0 0 19 19" fill="none" xmlns="http://www.w3.org/2000/svg">
<g clip-path="url(#clip0_3275_15561)">
<path fill-rule="evenodd" clip-rule="evenodd" d="M16.2699 3.40643C14.5776 1.71263 12.3277 0.779074 9.93092 0.77832C4.99191 0.77832 0.972139 4.79734 0.969878 9.73861C0.969125 11.3179 1.38203 12.8595 2.16639 14.2188L0.894531 18.8617L5.64442 17.6154C6.9532 18.3297 8.42699 18.7057 9.9264 18.7064H9.93017C14.8684 18.7064 18.889 14.6867 18.8912 9.74539C18.8927 7.35161 17.9614 5.09948 16.2699 3.40643ZM9.93092 17.1927H9.92791C8.59125 17.1927 7.28096 16.8333 6.13719 16.1544L5.86519 15.9932L3.04645 16.7323L3.79917 13.9837L3.6221 13.7019C2.87616 12.5159 2.48285 11.1453 2.4836 9.73861C2.48511 5.63219 5.82676 2.29129 9.93469 2.29129C11.9239 2.29129 13.794 3.06737 15.2 4.47485C16.6059 5.88309 17.3797 7.75397 17.379 9.74389C17.3767 13.8518 14.0358 17.1927 9.93092 17.1927ZM14.0163 11.6148C13.7925 11.5025 12.6916 10.9607 12.4859 10.8861C12.281 10.8116 12.1318 10.7739 11.9819 10.9977C11.8319 11.2214 11.404 11.7263 11.2729 11.8762C11.1425 12.0254 11.0114 12.0442 10.7876 11.932C10.5638 11.8197 9.84201 11.5839 8.98682 10.8206C8.32151 10.2269 7.87168 9.49373 7.74133 9.2692C7.61098 9.04466 7.72777 8.92411 7.83928 8.81259C7.94025 8.71238 8.06307 8.55114 8.17533 8.42003C8.28835 8.29044 8.32527 8.19701 8.40062 8.04707C8.47521 7.89788 8.4383 7.76677 8.38178 7.65451C8.32527 7.54299 7.87771 6.44066 7.6916 5.99235C7.51002 5.55533 7.32542 5.61486 7.18753 5.60808C7.05718 5.6013 6.90799 5.60054 6.75805 5.60054C6.60886 5.60054 6.36625 5.6563 6.1613 5.88083C5.95636 6.10537 5.37769 6.64712 5.37769 7.74869C5.37769 8.85102 6.18014 9.91568 6.29165 10.0649C6.40317 10.2141 7.87018 12.476 10.1163 13.4457C10.6505 13.6763 11.0679 13.8141 11.3927 13.9174C11.9291 14.0877 12.4174 14.0635 12.8032 14.0063C13.2334 13.9422 14.1278 13.4645 14.3146 12.9416C14.5015 12.4187 14.5015 11.9696 14.445 11.877C14.3892 11.7828 14.24 11.727 14.0163 11.6148Z" fill="currentColor"/>
</g>
<defs>
<clipPath id="clip0_3275_15561">
<rect width="18.0833" height="18.0833" fill="white" transform="translate(0.849609 0.77832)"/>
</clipPath>
</defs>
</svg>
