<svg width="19" height="20" viewBox="0 0 19 20" fill="none" xmlns="http://www.w3.org/2000/svg">
<g clip-path="url(#clip0_3275_15502)">
<path fill-rule="evenodd" clip-rule="evenodd" d="M10.1589 11.1466C9.99634 11.2958 9.74359 11.2849 9.59443 11.1223L6.73467 8.24159C6.62254 8.09207 6.62254 7.88645 6.73467 7.73693C6.87404 7.55111 7.13762 7.51348 7.32344 7.65281L9.46822 9.79759V1.80726C9.46822 1.575 9.6565 1.38672 9.88876 1.38672C10.121 1.38672 10.3093 1.575 10.3093 1.80726V9.79755L12.4541 7.65277C12.6036 7.54065 12.8092 7.54065 12.9587 7.65277C13.1446 7.79215 13.1822 8.05573 13.0429 8.24155L10.1832 11.1223C10.1754 11.1307 10.1674 11.1388 10.1589 11.1466ZM16.5129 5.97059L18.8679 11.0381C18.9014 11.0887 18.923 11.1462 18.931 11.2064V16.4421C18.8975 17.6206 17.944 18.5649 16.7652 18.5869H3.01344C1.83468 18.5649 0.881142 17.6206 0.847656 16.4421V11.2064C0.852969 11.1415 0.883114 11.0813 0.931773 11.0381L3.70734 5.94958C3.78699 5.81938 3.93386 5.74593 4.08583 5.76034H5.68389C5.91615 5.76034 6.10443 5.94862 6.10443 6.18088C6.10443 6.41315 5.91615 6.60143 5.68389 6.60143H4.33814L2.02517 10.8069H4.3802C5.46703 10.8015 6.45547 11.4357 6.90346 12.426C7.22797 13.1071 7.91532 13.5407 8.66975 13.5404H11.1089C11.8633 13.5407 12.5507 13.1071 12.8752 12.426C13.3232 11.4357 14.3116 10.8015 15.3984 10.8069H17.7955L15.84 6.60143H14.0948C13.8625 6.60143 13.6742 6.41315 13.6742 6.18088C13.6742 5.94862 13.8625 5.76034 14.0948 5.76034H16.1134C16.2761 5.74694 16.4318 5.82888 16.5129 5.97059Z" fill="#1F3374"/>
</g>
<defs>
<clipPath id="clip0_3275_15502">
<rect width="18.0833" height="18.0833" fill="white" transform="translate(0.849609 0.945068)"/>
</clipPath>
</defs>
</svg>
