<svg width="21" height="21" viewBox="0 0 21 21" fill="none" xmlns="http://www.w3.org/2000/svg">
<path fill-rule="evenodd" clip-rule="evenodd" d="M16.2291 7.58887C16.2291 8.6708 16.5151 9.30851 17.1444 10.0434C17.6213 10.5848 17.7737 11.2798 17.7737 12.0337C17.7737 12.7868 17.5262 13.5017 17.0305 14.0822C16.3815 14.778 15.4663 15.2223 14.5322 15.2995C13.1786 15.4149 11.8242 15.512 10.4517 15.512C9.07842 15.512 7.72482 15.4539 6.37122 15.2995C5.43628 15.2223 4.52104 14.778 3.87292 14.0822C3.3772 13.5017 3.12891 12.7868 3.12891 12.0337C3.12891 11.2798 3.28216 10.5848 3.75819 10.0434C4.40717 9.30851 4.67429 8.6708 4.67429 7.58887V7.22187C4.67429 5.77293 5.03559 4.82548 5.7796 3.89799C6.88577 2.54536 8.6589 1.73413 10.4132 1.73413H10.4902C12.2822 1.73413 14.1127 2.5844 15.2 3.99517C15.9055 4.90357 16.2291 5.81111 16.2291 7.22187V7.58887ZM7.93001 17.2927C7.93001 16.8589 8.32813 16.6602 8.69628 16.5752C9.12694 16.4841 11.7511 16.4841 12.1817 16.5752C12.5499 16.6602 12.948 16.8589 12.948 17.2927C12.9266 17.7057 12.6843 18.0719 12.3496 18.3044C11.9155 18.6428 11.4061 18.8571 10.8735 18.9343C10.579 18.9724 10.2896 18.9733 10.0054 18.9343C9.47197 18.8571 8.96255 18.6428 8.52933 18.3035C8.19371 18.0719 7.95142 17.7057 7.93001 17.2927Z" fill="#1F3374"/>
</svg>
