<svg width="27" height="23" viewBox="0 0 27 23" fill="none" xmlns="http://www.w3.org/2000/svg">
<path d="M22.1537 8.91267C24.3722 8.91267 26.1768 7.10803 26.1768 4.88978C26.1768 2.67153 24.3722 0.866699 22.1537 0.866699C19.9355 0.866699 18.1309 2.67153 18.1309 4.88978C18.1309 7.10803 19.9355 8.91267 22.1537 8.91267ZM21.4116 3.13308H22.8961V6.64629H21.4116V3.13308Z" fill="#FB3640"/>
<path d="M22.154 10.3969C19.1172 10.3969 16.6465 7.92646 16.6465 4.88968C16.6465 4.19639 16.7757 3.53267 17.0107 2.92114H3.80245C2.17099 2.92114 0.84375 4.24838 0.84375 5.87984V15.38C0.84375 17.0115 2.17099 18.3389 3.80245 18.3389H4.60301V22.5883L10.9504 18.3389H19.2142C20.8457 18.3389 22.1729 17.0115 22.1729 15.38V10.3967C22.1668 10.3967 22.1604 10.3969 22.154 10.3969ZM16.284 13.2316H7.12181V11.747H16.284V13.2316ZM16.284 9.63523H7.12181V8.15067H16.284V9.63523Z" fill="#1F3374"/>
</svg>
