<svg width="19" height="19" viewBox="0 0 19 19" fill="none" xmlns="http://www.w3.org/2000/svg">
<g clip-path="url(#clip0_3275_15480)">
<path fill-rule="evenodd" clip-rule="evenodd" d="M11.0669 0.808105C14.8131 0.808105 17.8862 3.74418 18.1056 7.43642C18.5711 7.63704 18.8978 8.10077 18.8978 8.63904V11.3703C18.8978 12.0922 18.3104 12.6795 17.5885 12.6795H16.5289V7.32976H17.0354C16.7663 4.27325 14.1922 1.86768 11.0669 1.86768H8.64538C5.52 1.86768 2.94596 4.27325 2.67682 7.32976H3.1833V12.6795H2.12373C1.40181 12.6795 0.814453 12.0922 0.814453 11.3703V8.63904C0.814453 8.10077 1.14115 7.63704 1.60666 7.43642C1.82599 3.74418 4.8991 0.808105 8.64538 0.808105H11.0669ZM16.2842 10.768V9.74392C16.2842 6.20231 13.4146 3.42171 9.89144 3.42171C6.36452 3.42171 3.4987 6.20273 3.4987 9.74392V10.768C3.4987 12.4021 4.83167 13.7349 6.4656 13.7349H13.3173C14.9512 13.7349 16.2842 12.4019 16.2842 10.768ZM7.71932 12.1455C6.26845 12.1455 5.08805 10.9651 5.08805 9.51421C5.08805 8.0633 6.26841 6.88294 7.71932 6.88294H12.0636C13.5144 6.88294 14.6948 8.0633 14.6948 9.51421C14.6948 10.9651 13.5144 12.1455 12.0636 12.1455H7.71932ZM12.0636 7.94255H7.71932C6.8527 7.94255 6.14762 8.64758 6.14762 9.51424C6.14762 10.3809 6.85266 11.0859 7.71932 11.0859H12.0636C12.9302 11.0859 13.6353 10.3809 13.6353 9.51424C13.6353 8.64758 12.9302 7.94255 12.0636 7.94255ZM8.36693 9.70846C8.36693 10.001 8.12973 10.2382 7.83714 10.2382C7.54456 10.2382 7.30736 10.001 7.30736 9.70846V9.31995C7.30736 9.02737 7.54456 8.79017 7.83714 8.79017C8.12973 8.79017 8.36693 9.02737 8.36693 9.31995V9.70846ZM12.4755 9.70846C12.4755 10.001 12.2383 10.2382 11.9457 10.2382C11.6531 10.2382 11.4159 10.001 11.4159 9.70846V9.31995C11.4159 9.02737 11.6531 8.79017 11.9457 8.79017C12.2383 8.79017 12.4755 9.02737 12.4755 9.31995V9.70846ZM11.4808 15.854H12.6463C13.2291 15.854 13.7059 16.3308 13.7059 16.9136C13.7059 17.4963 13.2291 17.9731 12.6463 17.9731H11.4808C10.898 17.9731 10.4212 17.4963 10.4212 16.9136C10.4212 16.3308 10.898 15.854 11.4808 15.854ZM17.8738 14.2469C17.8738 15.4244 16.8547 16.4192 15.6482 16.4192H14.7069C14.745 16.5779 14.7657 16.7433 14.7657 16.9136C14.7657 17.1093 14.7385 17.2987 14.6886 17.4787H15.6482C17.429 17.4787 18.9334 15.9987 18.9334 14.2469V13.2115C18.6252 13.4433 18.2651 13.6097 17.8738 13.6894V14.2469Z" fill="currentColor"/>
</g>
<defs>
<clipPath id="clip0_3275_15480">
<rect width="18.0833" height="18.0833" fill="white" transform="translate(0.849609 0.27832)"/>
</clipPath>
</defs>
</svg>
