<svg width="26" height="22" viewBox="0 0 19 19" fill="none" xmlns="http://www.w3.org/2000/svg">
<g clip-path="url(#clip0_3275_15532)">
<path fill-rule="evenodd" clip-rule="evenodd" d="M9.89128 2.24058C12.3054 2.24058 12.5917 2.24962 13.5449 2.29332C14.5304 2.33853 15.5453 2.56307 16.2634 3.28112C16.9882 4.00596 17.206 5.0111 17.2512 5.99965C17.2949 6.95279 17.3039 7.23911 17.3039 9.65324C17.3039 12.0674 17.2949 12.3537 17.2512 13.3068C17.2067 14.2871 16.9769 15.3118 16.2634 16.0254C15.5385 16.7502 14.5342 16.9679 13.5449 17.0132C12.5917 17.0569 12.3054 17.0659 9.89128 17.0659C7.47715 17.0659 7.19083 17.0569 6.23769 17.0132C5.26496 16.9687 4.22667 16.7336 3.51916 16.0254C2.79809 15.3043 2.57657 14.2894 2.53136 13.3068C2.48766 12.3537 2.47862 12.0674 2.47862 9.65324C2.47862 7.23911 2.48766 6.95279 2.53136 5.99965C2.57581 5.02315 2.80788 3.9924 3.51916 3.28112C4.24249 2.55779 5.25139 2.33853 6.23769 2.29332C7.19083 2.24962 7.47715 2.24058 9.89128 2.24058ZM9.89128 0.611572C7.43571 0.611572 7.12754 0.622121 6.1631 0.665822C4.7654 0.729867 3.37751 1.11866 2.3671 2.12907C1.35293 3.14324 0.967905 4.52812 0.903859 5.92506C0.860158 6.8895 0.849609 7.19767 0.849609 9.65324C0.849609 12.1088 0.860158 12.417 0.903859 13.3814C0.967905 14.7776 1.3582 16.1693 2.3671 17.1774C3.38052 18.1908 4.76766 18.5766 6.1631 18.6407C7.12754 18.6844 7.43571 18.6949 9.89128 18.6949C12.3468 18.6949 12.655 18.6844 13.6195 18.6407C15.0164 18.5766 16.4058 18.1871 17.4154 17.1774C18.4304 16.1625 18.8146 14.7784 18.8787 13.3814C18.9224 12.417 18.9329 12.1088 18.9329 9.65324C18.9329 7.19767 18.9224 6.8895 18.8787 5.92506C18.8146 4.52737 18.4251 3.13872 17.4154 2.12907C16.4035 1.11715 15.0126 0.729114 13.6195 0.665822C12.655 0.622121 12.3468 0.611572 9.89128 0.611572ZM9.89149 5.01022C7.32742 5.01022 5.24859 7.08905 5.24859 9.65312C5.24859 12.2172 7.32742 14.296 9.89149 14.296C12.4556 14.296 14.5344 12.2172 14.5344 9.65312C14.5344 7.08905 12.4556 5.01022 9.89149 5.01022ZM9.89149 12.667C8.22707 12.667 6.8776 11.3175 6.8776 9.65312C6.8776 7.9887 8.22707 6.63923 9.89149 6.63923C11.5559 6.63923 12.9054 7.9887 12.9054 9.65312C12.9054 11.3175 11.5559 12.667 9.89149 12.667ZM15.8024 4.8265C15.8024 5.42573 15.3167 5.9115 14.7174 5.9115C14.1182 5.9115 13.6324 5.42573 13.6324 4.8265C13.6324 4.22727 14.1182 3.7415 14.7174 3.7415C15.3167 3.7415 15.8024 4.22727 15.8024 4.8265Z" fill="currentColor"/>
</g>
<defs>
<clipPath id="clip0_3275_15532">
<rect width="18.0833" height="18.0833" fill="white" transform="translate(0.849609 0.611572)"/>
</clipPath>
</defs>
</svg>
