<svg width="26" height="22" viewBox="0 0 19 19" fill="none" xmlns="http://www.w3.org/2000/svg">
<g clip-path="url(#clip0_3275_15476)">
<path d="M18.9329 9.54142C18.9329 14.054 15.6222 17.795 11.3003 18.4738V12.1725H13.4017L13.8018 9.56553H11.3003V7.87399C11.3003 7.16045 11.6499 6.46575 12.7695 6.46575H13.9065V4.24602C13.9065 4.24602 12.8743 4.06971 11.888 4.06971C9.82798 4.06971 8.48228 5.31821 8.48228 7.57787V9.56478H6.19248V12.1718H8.48228V18.4731C4.16112 17.7935 0.849609 14.0532 0.849609 9.54142C0.849609 4.54816 4.89802 0.499756 9.89128 0.499756C14.8845 0.499756 18.9329 4.54741 18.9329 9.54142Z" fill="currentColor"/>
</g>
<defs>
<clipPath id="clip0_3275_15476">
<rect width="18.0833" height="18.0833" fill="white" transform="translate(0.849609 0.444824)"/>
</clipPath>
</defs>
</svg>
