<svg width="26" height="26" viewBox="0 0 19 19" fill="none" xmlns="http://www.w3.org/2000/svg">
<g clip-path="url(#clip0_3275_15522)">
<path fill-rule="evenodd" clip-rule="evenodd" d="M16.2338 5.61384H17.3436C18.22 5.61384 18.9329 6.32676 18.9329 7.20316V9.3223C18.9329 10.1987 18.22 10.9117 17.3436 10.9117H16.2269C15.3729 12.9629 13.596 14.4625 11.4806 14.9653V15.6798C11.4806 16.5562 10.7677 17.2691 9.89128 17.2691C9.01487 17.2691 8.30192 16.5562 8.30192 15.6798C8.30192 14.8034 9.0195 14.0904 9.90162 14.0904C12.359 14.0904 14.5592 12.5302 15.3772 10.2077L15.3795 10.2014C15.7091 9.29232 15.7996 8.28813 15.6408 7.29736C15.5932 6.96571 15.5104 6.64339 15.3925 6.32987L15.388 6.31796C14.6562 4.26526 12.8092 2.76042 10.6813 2.48324C8.66927 2.21937 6.69967 2.98869 5.40986 4.5434C4.0973 6.12498 3.72426 8.19291 4.38702 10.2169L4.61465 10.9117H2.43896C1.56256 10.9117 0.849609 10.1987 0.849609 9.32234V7.2032C0.849609 6.32679 1.56256 5.61384 2.43896 5.61384H3.53025C3.79048 4.99403 4.1459 4.40682 4.59395 3.86668C6.11811 2.02953 8.44782 1.11689 10.8189 1.43299C13.2116 1.74405 15.29 3.37271 16.2338 5.61384ZM5.12321 13.0308V11.9712C5.60592 11.9712 6.0136 11.6546 6.14139 11.2081C5.48329 10.3705 5.12321 9.33474 5.12321 8.26274C5.12321 5.63349 7.26202 3.49467 9.89128 3.49467C12.5205 3.49467 14.6593 5.63349 14.6593 8.26274C14.6593 10.892 12.5205 13.0308 9.89128 13.0308H5.12321ZM12.5402 7.73295H11.4806V8.79252H12.5402V7.73295ZM8.30192 7.73295H7.24235V8.79252H8.30192V7.73295ZM10.4211 7.73295H9.36149V8.79252H10.4211V7.73295Z" fill="currentColor"/>
</g>
<defs>
<clipPath id="clip0_3275_15522">
<rect width="18.0833" height="18.0833" fill="white" transform="translate(0.849609 0.27832)"/>
</clipPath>
</defs>
</svg>
