<svg width="19" height="19" viewBox="0 0 19 19" fill="none" xmlns="http://www.w3.org/2000/svg">
<g clip-path="url(#clip0_3275_15565)">
<path fill-rule="evenodd" clip-rule="evenodd" d="M16.2847 3.42656C14.577 1.71883 12.3065 0.77832 9.89128 0.77832C7.47606 0.77832 5.20557 1.71883 3.49785 3.42656C1.79012 5.13428 0.849609 7.40477 0.849609 9.81999C0.849609 12.2351 1.79012 14.5057 3.49785 16.2134C3.74094 16.4566 3.9959 16.6836 4.26065 16.8951C4.37916 14.675 5.78779 12.7919 7.74854 11.9834C6.67076 11.2808 5.95679 10.0649 5.95679 8.68509C5.95679 6.51559 7.72178 4.75061 9.89128 4.75061C12.0608 4.75061 13.8258 6.51559 13.8258 8.68509C13.8258 10.0649 13.1118 11.2808 12.034 11.9834C13.9948 12.7919 15.4034 14.675 15.5219 16.8951C15.7867 16.6836 16.0416 16.4565 16.2847 16.2134C17.9924 14.5057 18.9329 12.2351 18.9329 9.81999C18.9329 7.40477 17.9924 5.13428 16.2847 3.42656ZM9.89061 12.6193C7.36558 12.6193 5.31128 14.6736 5.31128 17.1987C5.31128 17.3448 5.31846 17.4892 5.33198 17.6318C6.70045 18.4335 8.26249 18.8614 9.89061 18.8614C11.5187 18.8614 13.0808 18.4335 14.4493 17.6318C14.4628 17.4891 14.4699 17.3448 14.4699 17.1987C14.4699 14.6736 12.4156 12.6193 9.89061 12.6193ZM9.89034 5.80995C11.4756 5.80995 12.7653 7.09951 12.7653 8.68487C12.7653 10.2701 11.4756 11.5598 9.89034 11.5598C8.30512 11.5598 7.01543 10.2701 7.01543 8.68487C7.01543 7.09965 8.30512 5.80995 9.89034 5.80995Z" fill="#1F3374"/>
</g>
<defs>
<clipPath id="clip0_3275_15565">
<rect width="18.0833" height="18.0833" fill="white" transform="translate(0.849609 0.77832)"/>
</clipPath>
</defs>
</svg>
