<svg width="26" height="20" viewBox="0 0 19 20" fill="none" xmlns="http://www.w3.org/2000/svg">
<g clip-path="url(#clip0_3275_15539)">
<path fill-rule="evenodd" clip-rule="evenodd" d="M8.96779 11.1425L1.55776 6.20231C1.11436 5.90686 0.849609 5.4124 0.849609 4.87961C0.849609 3.96114 1.59615 3.21463 2.51374 3.2146H17.2688C18.1864 3.2146 18.9329 3.9611 18.9329 4.87873C18.9329 5.4124 18.6682 5.90686 18.2248 6.20231L10.8148 11.1425C10.5343 11.3295 10.2127 11.423 9.89124 11.423C9.56977 11.423 9.24829 11.3295 8.96779 11.1425ZM9.89128 12.4825C10.4301 12.4825 10.9526 12.324 11.4025 12.0241L18.8123 7.08402C18.8535 7.05658 18.8936 7.02794 18.9329 6.99848V15.0935C18.9329 16.005 18.1963 16.7582 17.2682 16.7582H2.5143C1.60279 16.7582 0.849609 16.0216 0.849609 15.0935V6.99852C0.888849 7.0279 0.928901 7.05647 0.970012 7.08388L8.38005 12.0241C8.82994 12.324 9.35252 12.4825 9.89128 12.4825Z" fill="currentColor"/>
</g>
<defs>
<clipPath id="clip0_3275_15539">
<rect width="18.0833" height="18.0833" fill="white" transform="translate(0.849609 0.944824)"/>
</clipPath>
</defs>
</svg>
