<svg width="19" height="19" viewBox="0 0 19 19" fill="none" xmlns="http://www.w3.org/2000/svg">
<g clip-path="url(#clip0_3275_15463)">
<path d="M16.0853 3.45996C14.4309 1.80562 12.2313 0.894531 9.89146 0.894531C7.55165 0.894531 5.35201 1.80562 3.69764 3.45996C2.25457 4.90303 1.3568 6.81516 1.16975 8.84413C0.989587 10.7981 1.4725 12.7665 2.53073 14.4036L1.19182 17.99C1.15311 18.0936 1.17851 18.2103 1.25674 18.2886C1.33497 18.3669 1.45177 18.3922 1.5554 18.3535L5.14169 17.0136C6.55477 17.9269 8.21398 18.4118 9.89792 18.4118C10.1651 18.4118 10.4333 18.3996 10.7008 18.3749C12.7296 18.188 14.6419 17.2901 16.0854 15.8466C17.7397 14.1923 18.6508 11.9928 18.6508 9.65329C18.6508 7.31383 17.7397 5.11434 16.0854 3.45996H16.0853ZM11.7722 15.6493C11.5649 15.8555 11.2296 15.8555 11.0233 15.6493C10.8171 15.4431 10.8161 15.1067 11.0233 14.8994C11.2296 14.6932 11.5649 14.6932 11.7722 14.8994C11.9794 15.1067 11.9794 15.442 11.7722 15.6493ZM11.7234 11.3234L9.62696 10.112C9.46315 10.0174 9.36224 9.8425 9.36224 9.65329V6.3865C9.36224 6.09391 9.59944 5.85671 9.89202 5.85671C10.1846 5.85671 10.4218 6.09391 10.4218 6.3865V9.34754L12.2535 10.406C12.5069 10.5524 12.5935 10.8764 12.4472 11.1298C12.349 11.2996 12.171 11.3946 11.988 11.3946C11.898 11.3946 11.8069 11.3717 11.7234 11.3234ZM13.2599 14.9575C13.1138 15.2108 12.7894 15.2979 12.5361 15.1517C12.2828 15.0055 12.1957 14.6812 12.3419 14.4279C12.488 14.1746 12.8124 14.0875 13.0657 14.2347C13.319 14.3808 13.4061 14.7042 13.2599 14.9575ZM14.5174 13.9053C14.4423 14.1876 14.152 14.3558 13.8687 14.2797C13.5863 14.2046 13.4191 13.9133 13.4942 13.631C13.5703 13.3487 13.8606 13.1805 14.143 13.2565C14.4263 13.3326 14.5935 13.623 14.5174 13.9053ZM14.9309 13.0933C14.6385 13.0933 14.4013 12.8561 14.4013 12.5627C14.4013 12.2693 14.6385 12.0331 14.9309 12.0331C15.2232 12.0331 15.4605 12.2704 15.4605 12.5627C15.4605 12.855 15.2232 13.0933 14.9309 13.0933ZM15.6497 11.6717C15.3664 11.7468 15.0761 11.5796 15.001 11.2972C14.9249 11.0139 15.0921 10.7236 15.3754 10.6475C15.6578 10.5724 15.9481 10.7396 16.0242 11.0229C16.0993 11.3052 15.9321 11.5956 15.6497 11.6717ZM15.7108 10.1831C15.4182 10.1831 15.181 9.94588 15.181 9.65329C15.181 6.73693 12.8084 4.36427 9.89199 4.36427C6.97563 4.36427 4.60198 6.7369 4.60198 9.65329C4.60198 12.5697 6.97506 14.9423 9.89199 14.9423C10.1846 14.9423 10.4218 15.1795 10.4218 15.4721C10.4218 15.7647 10.1846 16.0019 9.89199 16.0019C6.39082 16.0019 3.54241 13.1539 3.54241 9.65329C3.54241 6.15268 6.39082 3.3047 9.89199 3.3047C13.3932 3.3047 16.2406 6.15265 16.2406 9.65329C16.2406 9.94588 16.0034 10.1831 15.7108 10.1831Z" fill="currentColor"/>
</g>
<defs>
<clipPath id="clip0_3275_15463">
<rect width="18.0833" height="18.0833" fill="white" transform="translate(0.849609 0.611572)"/>
</clipPath>
</defs>
</svg>
