<svg width="19" height="19" viewBox="0 0 19 19" fill="none" xmlns="http://www.w3.org/2000/svg">
<g clip-path="url(#clip0_3275_15557)">
<path d="M17.5512 14.2881C19.9269 10.508 19.2406 5.3554 15.4808 2.37492C12.2212 -0.207204 7.51641 -0.195579 4.27131 2.40399C-0.0176696 5.83518 -0.273557 12.1102 3.49784 15.8845C6.53938 18.9232 11.2006 19.339 14.6928 17.1465L17.4756 17.9374C18.0048 18.0886 18.4933 17.6001 18.3421 17.0709L17.5512 14.2881ZM9.89207 15.6781C9.3803 15.6781 8.96449 15.2622 8.96449 14.7505C8.96449 14.2358 9.3803 13.82 9.89207 13.82C10.4038 13.82 10.8197 14.2358 10.8197 14.7505C10.8197 15.2622 10.4038 15.6781 9.89207 15.6781ZM11.9799 9.44376C11.2413 10.0108 10.8197 10.8075 10.8197 11.6304V11.6915C10.8197 12.2062 10.4038 12.622 9.89207 12.622C9.3803 12.622 8.96449 12.2062 8.96449 11.6915V11.6304C8.96449 10.226 9.65072 8.89418 10.8487 7.97242C11.2442 7.66708 11.4681 7.20476 11.4623 6.7046C11.4506 5.87589 10.7411 5.16639 9.91243 5.15476H9.89207C9.47626 5.15476 9.0837 5.31469 8.79003 5.60838C8.48761 5.90496 8.32186 6.30333 8.32186 6.72496C8.32186 7.23965 7.90605 7.65254 7.39427 7.65254C6.8796 7.65254 6.46668 7.23964 6.46668 6.72496C6.46668 5.80319 6.82726 4.93668 7.48732 4.28532C8.14448 3.63689 9.02846 3.29668 9.93859 3.29959C11.7763 3.32575 13.2913 4.84072 13.3175 6.67844C13.332 7.75433 12.8318 8.78659 11.9799 9.44376Z" fill="currentColor"/>
</g>
<defs>
<clipPath id="clip0_3275_15557">
<rect width="18.0833" height="18.0833" fill="white" transform="translate(0.849609 0.445068)"/>
</clipPath>
</defs>
</svg>
