<svg width="20" height="20" viewBox="0 0 20 20" fill="none" xmlns="http://www.w3.org/2000/svg">
<path fill-rule="evenodd" clip-rule="evenodd" d="M1.75781 1.21173H12.3828C13.3555 1.21173 14.1406 1.99685 14.1406 2.96954V10.0008C14.1406 10.9734 13.3555 11.7586 12.3828 11.7586H6.79688C6.67969 11.7586 6.57422 11.7937 6.48051 11.8523C6.28752 11.9798 6.19778 12.0387 6.10826 12.0979C5.86296 12.2603 5.61928 12.425 3.25785 14.0086C3.25198 14.0145 3.24317 14.0174 3.23436 14.0203C3.22557 14.0233 3.21679 14.0262 3.21094 14.032C2.78207 14.2463 2.34375 13.9397 2.34375 13.5164V11.7586H1.75781C0.785117 11.7586 0 10.9734 0 10.0008V2.96954C0 1.99685 0.785117 1.21173 1.75781 1.21173ZM2.92969 8.24298H7.69531C8.47086 8.24298 8.4677 7.07111 7.69531 7.07111H2.92969C2.15414 7.07111 2.1573 8.24298 2.92969 8.24298ZM2.92969 5.89923H11.2109C11.9865 5.89923 11.9833 4.72736 11.2109 4.72736H2.92969C2.15414 4.72736 2.1573 5.89923 2.92969 5.89923ZM15.3125 5.89923H18.2422C19.2149 5.89923 20 6.68439 20 7.65704V14.6883C20 15.6609 19.2149 16.4461 18.2422 16.4461H17.6562V18.2039C17.6562 18.641 17.2012 18.9509 16.7421 18.6961L13.3789 16.4461H7.61719C6.64449 16.4461 5.85938 15.6609 5.85938 14.6883V13.6688L6.97266 12.9305H12.3828C14 12.9305 15.3125 11.618 15.3125 10.0008V5.89923Z" fill="currentColor"/>
</svg>
