<svg width="20" height="20" viewBox="0 0 20 20" fill="none" xmlns="http://www.w3.org/2000/svg">
<g clip-path="url(#clip0_3298_5221)">
<path fill-rule="evenodd" clip-rule="evenodd" d="M11.3 0.585938C15.4434 0.585938 18.8422 3.8332 19.0848 7.9168C19.5996 8.13867 19.9609 8.65156 19.9609 9.24687V12.2676C19.9609 13.066 19.3113 13.7156 18.5129 13.7156H17.341V7.79883H17.9012C17.6035 4.41836 14.7566 1.75781 11.3 1.75781H8.62187C5.16523 1.75781 2.31836 4.41836 2.0207 7.79883H2.58086V13.7156H1.40898C0.610547 13.7156 -0.0390625 13.066 -0.0390625 12.2676V9.24687C-0.0390625 8.65156 0.322266 8.13867 0.837109 7.9168C1.07969 3.8332 4.47852 0.585938 8.62187 0.585938H11.3ZM17.0703 11.6014V10.4689C17.0703 6.55188 13.8966 3.47656 10 3.47656C6.09926 3.47656 2.92969 6.55234 2.92969 10.4689V11.6014C2.92969 13.4088 4.40395 14.8828 6.21105 14.8828H13.7889C15.5961 14.8828 17.0703 13.4086 17.0703 11.6014ZM7.59766 13.125C5.99301 13.125 4.6875 11.8195 4.6875 10.2148C4.6875 8.61012 5.99297 7.30465 7.59766 7.30465H12.4023C14.007 7.30465 15.3125 8.61012 15.3125 10.2148C15.3125 11.8195 14.007 13.125 12.4023 13.125H7.59766ZM12.4023 8.47656H7.59766C6.63918 8.47656 5.85938 9.25633 5.85938 10.2148C5.85938 11.1734 6.63914 11.9531 7.59766 11.9531H12.4023C13.3608 11.9531 14.1406 11.1734 14.1406 10.2148C14.1406 9.25633 13.3608 8.47656 12.4023 8.47656ZM8.31391 10.4296C8.31391 10.7532 8.05156 11.0156 7.72797 11.0156C7.40438 11.0156 7.14203 10.7532 7.14203 10.4296V9.99996C7.14203 9.67637 7.40438 9.41402 7.72797 9.41402C8.05156 9.41402 8.31391 9.67637 8.31391 9.99996V10.4296ZM12.8579 10.4296C12.8579 10.7532 12.5956 11.0156 12.272 11.0156C11.9484 11.0156 11.6861 10.7532 11.6861 10.4296V9.99996C11.6861 9.67637 11.9484 9.41402 12.272 9.41402C12.5956 9.41402 12.8579 9.67637 12.8579 9.99996V10.4296ZM10.5859 18.3984C10.5859 17.7539 11.1133 17.2266 11.7578 17.2266H13.0469C13.6914 17.2266 14.2188 17.7539 14.2188 18.3984C14.2188 19.043 13.6914 19.5703 13.0469 19.5703H11.7578C11.1133 19.5703 10.5859 19.043 10.5859 18.3984ZM18.8288 15.4492C18.8288 16.7515 17.7016 17.8517 16.3673 17.8517H15.3262C15.3683 18.0272 15.3913 18.2102 15.3913 18.3985C15.3913 18.615 15.3611 18.8244 15.306 19.0235H16.3673C18.3368 19.0235 20.0006 17.3867 20.0006 15.4492V14.304C19.6598 14.5604 19.2615 14.7444 18.8288 14.8326V15.4492Z" fill="currentColor" fill-opacity="fillOpacity"/>
</g>
<defs>
<clipPath id="clip0_3298_5221">
<rect width="20" height="20" fill="white"/>
</clipPath>
</defs>
</svg>
