<svg width="20" height="20" viewBox="0 0 20 20" fill="none" xmlns="http://www.w3.org/2000/svg">
<g clip-path="url(#clip0_3298_5210)">
<path d="M16.8498 3.15033C15.0201 1.32064 12.5873 0.312988 9.99948 0.312988C7.41167 0.312988 4.9789 1.32064 3.14917 3.15033C1.55316 4.74635 0.560226 6.86115 0.353351 9.10518C0.154094 11.2663 0.688195 13.4432 1.85859 15.2539L0.377765 19.2204C0.334953 19.335 0.363039 19.4641 0.449562 19.5507C0.536086 19.6372 0.665265 19.6652 0.779875 19.6224L4.74628 18.1405C6.30913 19.1507 8.14421 19.6869 10.0066 19.6869C10.3021 19.6869 10.5987 19.6734 10.8946 19.6461C13.1385 19.4394 15.2534 18.4463 16.8499 16.8499C18.6796 15.0202 19.6873 12.5875 19.6873 10.0001C19.6873 7.41268 18.6796 4.98006 16.8499 3.15033H16.8498ZM12.0796 16.6316C11.8503 16.8597 11.4794 16.8597 11.2513 16.6316C11.0232 16.4035 11.0221 16.0315 11.2513 15.8022C11.4794 15.5742 11.8503 15.5742 12.0796 15.8022C12.3088 16.0315 12.3088 16.4024 12.0796 16.6316ZM12.0256 11.8472L9.70694 10.5074C9.52577 10.4028 9.41417 10.2094 9.41417 10.0001V6.38705C9.41417 6.06346 9.67651 5.80111 10.0001 5.80111C10.3237 5.80111 10.586 6.06346 10.586 6.38705V9.66193L12.6119 10.8326C12.8921 10.9945 12.988 11.3529 12.8261 11.6331C12.7175 11.8209 12.5206 11.926 12.3182 11.926C12.2187 11.926 12.1179 11.9006 12.0256 11.8472ZM13.725 15.8665C13.5633 16.1467 13.2046 16.243 12.9244 16.0813C12.6442 15.9196 12.5479 15.5609 12.7096 15.2808C12.8713 15.0006 13.23 14.9043 13.5102 15.0671C13.7903 15.2287 13.8867 15.5863 13.725 15.8665ZM15.1157 14.7028C15.0327 15.015 14.7116 15.201 14.3982 15.1169C14.086 15.0338 13.901 14.7116 13.9841 14.3994C14.0682 14.0871 14.3894 13.9011 14.7016 13.9853C15.015 14.0694 15.1999 14.3905 15.1157 14.7028ZM15.573 13.8047C15.2497 13.8047 14.9873 13.5423 14.9873 13.2179C14.9873 12.8934 15.2497 12.6321 15.573 12.6321C15.8964 12.6321 16.1588 12.8946 16.1588 13.2179C16.1588 13.5412 15.8964 13.8047 15.573 13.8047ZM16.3681 12.2324C16.0547 12.3154 15.7336 12.1305 15.6506 11.8183C15.5664 11.5049 15.7513 11.1838 16.0647 11.0996C16.377 11.0166 16.6981 11.2015 16.7822 11.5149C16.8653 11.8271 16.6803 12.1482 16.3681 12.2324ZM16.4356 10.586C16.112 10.586 15.8497 10.3237 15.8497 10.0001C15.8497 6.77463 13.2255 4.15049 10.0001 4.15049C6.7746 4.15049 4.14937 6.77459 4.14937 10.0001C4.14937 13.2256 6.77398 15.8497 10.0001 15.8497C10.3237 15.8497 10.586 16.1121 10.586 16.4356C10.586 16.7592 10.3237 17.0216 10.0001 17.0216C6.1278 17.0216 2.97749 13.8717 2.97749 10.0001C2.97749 6.12846 6.1278 2.97861 10.0001 2.97861C13.8723 2.97861 17.0216 6.12842 17.0216 10.0001C17.0216 10.3237 16.7592 10.586 16.4356 10.586Z" fill="currentColor"/>
</g>
<defs>
<clipPath id="clip0_3298_5210">
<rect width="20" height="20" fill="white"/>
</clipPath>
</defs>
</svg>
