<svg width="20" height="20" viewBox="0 0 20 20" fill="none" xmlns="http://www.w3.org/2000/svg">
<path d="M18.75 13.6938V16.3062C18.7484 16.6223 18.6221 16.925 18.3985 17.1485C18.175 17.3721 17.8723 17.4984 17.5562 17.5H12.4438C12.1277 17.4984 11.825 17.3721 11.6015 17.1485C11.3779 16.925 11.2516 16.6223 11.25 16.3062V13.6938C11.2516 13.3777 11.3779 13.075 11.6015 12.8515C11.825 12.6279 12.1277 12.5016 12.4438 12.5H14.375V10.625H5.625V12.5H7.55625C7.87235 12.5016 8.17503 12.6279 8.39854 12.8515C8.62206 13.075 8.74836 13.3777 8.75 13.6938V16.3062C8.74836 16.6223 8.62206 16.925 8.39854 17.1485C8.17503 17.3721 7.87235 17.4984 7.55625 17.5H2.44375C2.12765 17.4984 1.82497 17.3721 1.60146 17.1485C1.37794 16.925 1.25164 16.6223 1.25 16.3062V13.6938C1.25164 13.3777 1.37794 13.075 1.60146 12.8515C1.82497 12.6279 2.12765 12.5016 2.44375 12.5H4.375V10.625C4.375 10.2935 4.5067 9.97554 4.74112 9.74112C4.97554 9.5067 5.29348 9.375 5.625 9.375H9.375V7.5H7.44375C7.12765 7.49836 6.82497 7.37206 6.60146 7.14854C6.37794 6.92503 6.25164 6.62235 6.25 6.30625V3.69375C6.25164 3.37765 6.37794 3.07497 6.60146 2.85146C6.82497 2.62794 7.12765 2.50164 7.44375 2.5H12.5562C12.8723 2.50164 13.175 2.62794 13.3985 2.85146C13.6221 3.07497 13.7484 3.37765 13.75 3.69375V6.30625C13.7484 6.62235 13.6221 6.92503 13.3985 7.14854C13.175 7.37206 12.8723 7.49836 12.5562 7.5H10.625V9.375H14.375C14.7065 9.375 15.0245 9.5067 15.2589 9.74112C15.4933 9.97554 15.625 10.2935 15.625 10.625V12.5H17.5562C17.8723 12.5016 18.175 12.6279 18.3985 12.8515C18.6221 13.075 18.7484 13.3777 18.75 13.6938Z" fill="currentColor" fill-opacity="currentOpacity"/>
</svg>
