<svg width="20" height="20" viewBox="0 0 20 20" fill="none" xmlns="http://www.w3.org/2000/svg">
<g clip-path="url(#clip0_3298_11432)">
<path fill-rule="evenodd" clip-rule="evenodd" d="M16.5362 1.62162C16.5362 0.726026 17.2627 0 18.1589 0C19.0551 0 19.7817 0.726026 19.7817 1.62162C19.7817 2.51722 19.0552 3.24325 18.1589 3.24325C17.9021 3.24325 17.6594 3.18338 17.4436 3.07727L14.2815 5.77094C14.3402 5.93859 14.3725 6.11863 14.3725 6.30628C14.3725 7.20188 13.646 7.92791 12.7497 7.92791C11.8535 7.92791 11.127 7.20188 11.127 6.30628C11.127 6.29989 11.1272 6.29354 11.1274 6.28719C11.1276 6.2831 11.1277 6.27901 11.1278 6.27491L8.42795 5.16919C8.13223 5.48094 7.71419 5.67568 7.25039 5.67568C6.87133 5.67568 6.52295 5.54547 6.24676 5.32786L3.44184 6.98628C3.45616 7.07286 3.46394 7.16162 3.46394 7.25227C3.46394 8.14786 2.73744 8.87389 1.8412 8.87389C0.944963 8.87389 0.218424 8.14786 0.218424 7.25227C0.218424 6.35667 0.944963 5.63064 1.8412 5.63064C2.22022 5.63064 2.5686 5.76086 2.84479 5.97846L5.64971 4.32004C5.63539 4.23346 5.62761 4.1447 5.62761 4.05406C5.62761 3.15846 6.35411 2.43244 7.25035 2.43244C8.14659 2.43244 8.87313 3.15846 8.87313 4.05406C8.87313 4.06049 8.8729 4.06686 8.87268 4.07322C8.87254 4.0773 8.8724 4.08138 8.87231 4.08547L11.5721 5.1912C11.8679 4.87945 12.2859 4.6847 12.7497 4.6847C13.029 4.6847 13.2919 4.75526 13.5214 4.87949L16.6489 2.21526C16.5764 2.03137 16.5362 1.83124 16.5362 1.62162ZM19.8721 5.94015H16.667V20H19.8721V5.94015ZM5.64172 7.90598H8.84684V20H5.64172V7.90598ZM11.1543 10.4702H14.3594V20.0001H11.1543V10.4702ZM0.128906 12.4786H3.33403V20H0.128906V12.4786Z" fill="currentColor"/>
</g>
<defs>
<clipPath id="clip0_3298_11432">
<rect width="20" height="20" fill="white"/>
</clipPath>
</defs>
</svg>
