<svg width="18" height="10" viewBox="0 0 18 10" fill="none" xmlns="http://www.w3.org/2000/svg">
<path d="M0.48598 9.58915C0.163527 9.27851 0.163527 8.77488 0.48598 8.46428L5.32005 3.80738C5.6425 3.49682 6.16526 3.49674 6.48767 3.80738L9.52717 6.73549L14.3141 2.12396H12.1932C11.7372 2.12396 11.3676 1.76787 11.3676 1.32858C11.3676 0.889294 11.7372 0.533203 12.1932 0.533203H16.307C16.7704 0.532965 17.133 0.897924 17.133 1.32858V5.29195C17.133 5.73124 16.7634 6.08733 16.3074 6.08733C15.8514 6.08733 15.4818 5.73124 15.4818 5.29195V3.24882L10.111 8.42276C9.78853 8.7334 9.26577 8.7334 8.94336 8.42276L5.90386 5.49466L1.6536 9.58915C1.33119 9.89978 0.808351 9.8997 0.48598 9.58915Z" fill="#19BC5A"/>
</svg>
