<svg width="20" height="20" viewBox="0 0 20 20" fill="none" xmlns="http://www.w3.org/2000/svg">
<g clip-path="url(#clip0_3298_7135)">
<path fill-rule="evenodd" clip-rule="evenodd" d="M10.2959 11.2826C10.1161 11.4476 9.83655 11.4356 9.67158 11.2557L6.5087 8.06971C6.38469 7.90434 6.38469 7.67692 6.5087 7.51156C6.66285 7.30604 6.95437 7.26442 7.15989 7.41853L9.53199 9.79063V0.953399C9.53199 0.696514 9.74022 0.488281 9.99711 0.488281C10.254 0.488281 10.4622 0.696514 10.4622 0.953399V9.79058L12.8343 7.41848C12.9997 7.29447 13.2271 7.29447 13.3925 7.41848C13.598 7.57263 13.6396 7.86415 13.4855 8.06966L10.3227 11.2557C10.3142 11.265 10.3052 11.274 10.2959 11.2826ZM17.3237 5.558L19.9283 11.1626C19.9654 11.2186 19.9892 11.2822 19.998 11.3487V17.1394C19.961 18.4429 18.9065 19.4872 17.6027 19.5115H2.39339C1.08969 19.4872 0.0350818 18.4429 -0.00195312 17.1394V11.3487C0.0039226 11.277 0.0372629 11.2104 0.0910792 11.1626L3.16084 5.53477C3.24893 5.39077 3.41136 5.30953 3.57944 5.32547H5.34687C5.60376 5.32547 5.81199 5.5337 5.81199 5.79058C5.81199 6.04747 5.60376 6.2557 5.34687 6.2557H3.85849L1.30037 10.9069H3.90501C5.10704 10.901 6.20023 11.6024 6.69571 12.6976C7.05462 13.4509 7.81481 13.9305 8.64921 13.9302H11.3469C12.1813 13.9305 12.9415 13.4509 13.3004 12.6976C13.7959 11.6024 14.8891 10.901 16.0911 10.9069H18.7422L16.5794 6.2557H14.6492C14.3923 6.2557 14.1841 6.04747 14.1841 5.79058C14.1841 5.5337 14.3923 5.32547 14.6492 5.32547H16.8818C17.0617 5.31064 17.234 5.40127 17.3237 5.558Z" fill="currentColor"/>
</g>
<defs>
<clipPath id="clip0_3298_7135">
<rect width="20" height="20" fill="white"/>
</clipPath>
</defs>
</svg>
