<svg width="20" height="20" viewBox="0 0 20 20" fill="none" xmlns="http://www.w3.org/2000/svg">
<g clip-path="url(#clip0_3298_8838)">
<path fill-rule="evenodd" clip-rule="evenodd" d="M11.875 0H18.125C19.1589 0 20 0.841063 20 1.875V8.125C20 8.47046 19.7205 8.75 19.375 8.75H17.5C17.5 9.78394 16.6589 10.625 15.625 10.625C14.5911 10.625 13.75 9.78394 13.75 8.75H11.875C11.5295 8.75 11.25 8.47046 11.25 8.125V5.45654C11.25 4.99061 11.7853 4.67734 12.1912 4.91703C12.5915 5.15338 13.125 4.83124 13.125 4.37498C13.125 3.90951 12.6001 3.59438 12.1911 3.83302C11.7827 4.07136 11.25 3.76726 11.25 3.29344V0.625C11.25 0.279544 11.5295 0 11.875 0ZM4.375 9.375C3.34106 9.375 2.5 10.2161 2.5 11.25H0V5.625C0 4.59106 0.841063 3.75 1.875 3.75H7.5V7.04346C7.5 7.51401 8.03349 7.82272 8.44092 7.58297C8.8398 7.34825 9.37501 7.67106 9.375 8.12501C9.37499 8.59539 8.84692 8.90344 8.44086 8.66699C8.03806 8.43246 7.5 8.73958 7.5 9.20656V11.25H6.25C6.25 10.2161 5.40894 9.375 4.375 9.375ZM5.625 15.625C5.625 16.6589 6.46606 17.5 7.5 17.5V20H1.875C0.841063 20 0 19.1589 0 18.125V12.5H3.29376C3.76668 12.5 4.073 11.9676 3.83298 11.5588C3.59948 11.1611 3.92239 10.625 4.37504 10.625C4.84812 10.625 5.15137 11.1582 4.91697 11.5589C4.67424 11.9737 4.99001 12.5 5.45624 12.5H7.5V13.75C6.46606 13.75 5.625 14.5911 5.625 15.625ZM13.75 12.5C13.75 13.5339 12.9089 14.375 11.875 14.375C10.8411 14.375 10 13.5339 10 12.5H8.75V14.5435C8.75 15.0117 8.21311 15.3187 7.80916 15.083C7.40547 14.8474 6.87501 15.154 6.875 15.625C6.87499 16.0806 7.40947 16.4022 7.80913 16.167C8.21443 15.9284 8.75 16.2406 8.75 16.7065V20H14.375C15.4089 20 16.25 19.1589 16.25 18.125V12.5H13.75Z" fill="currentColor"/>
</g>
<defs>
<clipPath id="clip0_3298_8838">
<rect width="20" height="20" fill="white"/>
</clipPath>
</defs>
</svg>
