<svg width="20" height="20" viewBox="0 0 20 20" fill="none" xmlns="http://www.w3.org/2000/svg">
<g clip-path="url(#clip0_3298_3736)">
<path d="M18.4718 15.3103C21.0993 11.1295 20.3403 5.43078 16.182 2.13439C12.5769 -0.721414 7.37342 -0.708558 3.78437 2.16654C-0.959203 5.9614 -1.24221 12.9015 2.92892 17.0759C6.29283 20.4366 11.4481 20.8965 15.3105 18.4716L18.3882 19.3464C18.9735 19.5136 19.5138 18.9733 19.3465 18.388L18.4718 15.3103ZM10.0009 16.8475C9.43486 16.8475 8.97498 16.3876 8.97498 15.8216C8.97498 15.2524 9.43486 14.7925 10.0009 14.7925C10.5669 14.7925 11.0268 15.2524 11.0268 15.8216C11.0268 16.3876 10.5669 16.8475 10.0009 16.8475ZM12.31 9.95246C11.4931 10.5796 11.0268 11.4608 11.0268 12.3709V12.4384C11.0268 13.0077 10.5669 13.4675 10.0009 13.4675C9.43486 13.4675 8.97498 13.0077 8.97498 12.4384V12.3709C8.97498 10.8176 9.73395 9.34464 11.0589 8.32517C11.4963 7.98748 11.7439 7.47615 11.7375 6.92298C11.7247 6.00643 10.9399 5.22173 10.0234 5.20887H10.0009C9.541 5.20887 9.10683 5.38575 8.78203 5.71057C8.44755 6.03859 8.26424 6.47917 8.26424 6.94549C8.26424 7.51473 7.80435 7.9714 7.23834 7.9714C6.66912 7.9714 6.21243 7.51473 6.21243 6.94549C6.21243 5.92603 6.61123 4.96767 7.34125 4.24727C8.06807 3.53011 9.04574 3.15385 10.0523 3.15707C12.0848 3.186 13.7604 4.86154 13.7893 6.89405C13.8054 8.08397 13.2522 9.22564 12.31 9.95246Z" fill="currentColor"/>
</g>
<defs>
<clipPath id="clip0_3298_3736">
<rect width="20" height="20" fill="white"/>
</clipPath>
</defs>
</svg>
