<svg width="18" height="11" viewBox="0 0 18 11" fill="none" xmlns="http://www.w3.org/2000/svg">
<path d="M1.2184 1.07736C0.895949 1.38799 0.895949 1.89163 1.2184 2.20222L6.05247 6.85912C6.37492 7.16968 6.89768 7.16976 7.22009 6.85912L10.2596 3.93102L15.0466 8.54254H12.9257C12.4697 8.54254 12.1 8.89863 12.1 9.33792C12.1 9.77721 12.4697 10.1333 12.9257 10.1333H17.0394C17.5028 10.1335 17.8654 9.76858 17.8654 9.33792V5.37455C17.8654 4.93526 17.4958 4.57917 17.0398 4.57917C16.5838 4.57917 16.2142 4.93526 16.2142 5.37455V7.41768L10.8434 2.24374C10.5209 1.93311 9.99819 1.93311 9.67578 2.24374L6.63628 5.17185L2.38602 1.07736C2.06361 0.766724 1.54077 0.766803 1.2184 1.07736Z" fill="#EB0F35"/>
</svg>
