<svg width="26" height="16" viewBox="0 0 20 20" fill="none" xmlns="http://www.w3.org/2000/svg">
<g clip-path="url(#clip0_3298_3852)">
<path fill-rule="evenodd" clip-rule="evenodd" d="M19.1667 2.49995H16.9475C16.5858 1.29913 15.4833 0.416626 14.1667 0.416626C12.85 0.416626 11.7475 1.29913 11.3858 2.49995H0.83332C0.37332 2.49995 0 2.87327 0 3.33327C0 3.79327 0.37332 4.16659 0.83332 4.16659H11.3858C11.7475 5.36745 12.85 6.24995 14.1667 6.24995C15.4834 6.24995 16.5859 5.36745 16.9475 4.16663H19.1667C19.6275 4.16663 20 3.79331 20 3.33331C20 2.87331 19.6275 2.49995 19.1667 2.49995ZM14.1667 4.58327C13.4775 4.58327 12.9167 4.02245 12.9167 3.33327C12.9167 2.64409 13.4775 2.08327 14.1667 2.08327C14.8559 2.08327 15.4167 2.64409 15.4167 3.33327C15.4167 4.02245 14.8558 4.58327 14.1667 4.58327ZM19.1667 15.8333H16.9475C16.5867 14.6325 15.4833 13.75 14.1667 13.75C12.85 13.75 11.7475 14.6325 11.3859 15.8333H0.83332C0.37332 15.8333 0 16.2066 0 16.6666C0 17.1266 0.37332 17.5 0.83332 17.5H11.3858C11.7466 18.7008 12.85 19.5833 14.1666 19.5833C15.4833 19.5833 16.5858 18.7008 16.9475 17.5H19.1666C19.6275 17.5 20 17.1266 20 16.6666C20 16.2066 19.6275 15.8333 19.1667 15.8333ZM14.1667 17.9166C13.4775 17.9166 12.9167 17.3558 12.9167 16.6666C12.9167 15.9775 13.4775 15.4166 14.1667 15.4166C14.8559 15.4166 15.4167 15.9775 15.4167 16.6666C15.4167 17.3558 14.8558 17.9166 14.1667 17.9166ZM8.61418 9.16661H19.1667C19.6275 9.16661 20 9.53993 20 9.99993C20 10.4599 19.6275 10.8333 19.1666 10.8333H8.61414C8.2525 12.0341 7.14996 12.9166 5.83332 12.9166C4.51668 12.9166 3.41418 12.0341 3.0525 10.8333H0.83332C0.37332 10.8333 0 10.4599 0 9.99993C0 9.53993 0.37332 9.16661 0.83332 9.16661H3.05254C3.41418 7.96579 4.51672 7.08329 5.83336 7.08329C7.15 7.08329 8.2525 7.96579 8.61418 9.16661ZM4.58332 9.99993C4.58332 10.6891 5.14414 11.2499 5.83332 11.2499C6.5225 11.2499 7.08332 10.6891 7.08332 9.99993C7.08332 9.31075 6.5225 8.74993 5.83332 8.74993C5.14414 8.74993 4.58332 9.31075 4.58332 9.99993Z" fill="currentColor" fill-opacity="currentOpacity"/>
</g>
<defs>
<clipPath id="clip0_3298_3852">
<rect width="20" height="20" fill="white"/>
</clipPath>
</defs>
</svg>
