<svg width="20" height="20" viewBox="0 0 20 20" fill="none" xmlns="http://www.w3.org/2000/svg">
<path d="M18.2563 7.40012C17.8916 7.34714 17.5435 7.21258 17.238 7.00644C16.9326 6.80031 16.6775 6.52791 16.4919 6.20955C16.3063 5.89118 16.1949 5.53504 16.166 5.16765C16.1371 4.80026 16.1915 4.43108 16.325 4.08761C16.4099 3.86307 16.4224 3.61758 16.3608 3.38557C16.2991 3.15356 16.1664 2.94665 15.9813 2.79386C15.1638 2.1074 14.2333 1.56814 13.2313 1.20011C13.0031 1.11535 12.754 1.10476 12.5194 1.16985C12.2849 1.23494 12.0769 1.37239 11.925 1.56261C11.6964 1.8549 11.4043 2.09129 11.0708 2.25387C10.7372 2.41645 10.3711 2.50094 10 2.50094C9.62897 2.50094 9.26279 2.41645 8.92926 2.25387C8.59572 2.09129 8.30359 1.8549 8.07502 1.56261C7.92315 1.37239 7.71513 1.23494 7.48059 1.16985C7.24604 1.10476 6.99694 1.11535 6.76876 1.20011C5.84356 1.53989 4.97851 2.02516 4.20626 2.63761C4.0116 2.79172 3.87139 3.00409 3.80616 3.24365C3.74093 3.4832 3.75411 3.73734 3.84376 3.96886C3.98799 4.32142 4.04757 4.70287 4.01775 5.08261C3.98792 5.46236 3.86951 5.82983 3.67201 6.15554C3.47452 6.48126 3.20344 6.75615 2.88051 6.95818C2.55758 7.16021 2.1918 7.28374 1.81251 7.31886C1.56627 7.34519 1.33498 7.44989 1.15271 7.61754C0.970433 7.78518 0.846801 8.00693 0.800014 8.25011C0.683637 8.82618 0.625014 9.41241 0.625014 10.0001C0.624158 10.4921 0.663876 10.9834 0.743764 11.4689C0.783523 11.7198 0.904855 11.9507 1.089 12.1258C1.27315 12.301 1.50985 12.4105 1.76251 12.4376C2.15014 12.474 2.5234 12.6027 2.85108 12.8129C3.17875 13.0232 3.4513 13.3089 3.64591 13.646C3.84052 13.9832 3.95152 14.3622 3.96963 14.7511C3.98775 15.14 3.91244 15.5275 3.75001 15.8814C3.64372 16.1115 3.61735 16.3706 3.6751 16.6174C3.73285 16.8643 3.8714 17.0848 4.06876 17.2439C4.88134 17.9179 5.80287 18.4484 6.79376 18.8126C6.92048 18.8565 7.05343 18.8797 7.18751 18.8814C7.37137 18.881 7.55245 18.8365 7.71557 18.7517C7.87869 18.6668 8.0191 18.5441 8.12501 18.3939C8.34777 18.0693 8.64638 17.804 8.99491 17.621C9.34345 17.4381 9.73137 17.3429 10.125 17.3439C10.5064 17.3443 10.8825 17.4339 11.2232 17.6053C11.5639 17.7767 11.8598 18.0254 12.0875 18.3314C12.239 18.5349 12.4535 18.6827 12.6977 18.7517C12.9418 18.8206 13.202 18.8069 13.4375 18.7126C14.3436 18.348 15.1871 17.844 15.9375 17.2189C16.126 17.063 16.2603 16.8514 16.3209 16.6144C16.3815 16.3775 16.3655 16.1274 16.275 15.9001C16.128 15.5521 16.0639 15.1747 16.0878 14.7977C16.1117 14.4206 16.2228 14.0543 16.4125 13.7276C16.6023 13.4009 16.8653 13.1228 17.1809 12.9152C17.4966 12.7076 17.8561 12.5762 18.2313 12.5314C18.4745 12.4977 18.7007 12.3875 18.8771 12.2167C19.0536 12.0459 19.171 11.8234 19.2125 11.5814C19.3129 11.0601 19.3673 10.5309 19.375 10.0001C19.3751 9.44021 19.3228 8.88152 19.2188 8.33136C19.1766 8.09468 19.0609 7.87731 18.8881 7.71013C18.7153 7.54296 18.4942 7.43448 18.2563 7.40012ZM13.125 10.0001C13.125 10.6182 12.9417 11.2224 12.5984 11.7363C12.255 12.2502 11.7669 12.6507 11.1959 12.8872C10.6249 13.1238 9.99655 13.1856 9.39036 13.0651C8.78417 12.9445 8.22734 12.6469 7.79031 12.2098C7.35327 11.7728 7.05564 11.216 6.93506 10.6098C6.81448 10.0036 6.87637 9.37525 7.11289 8.80423C7.34941 8.23321 7.74995 7.74515 8.26386 7.40177C8.77776 7.05839 9.38195 6.87511 10 6.87511C10.8288 6.87511 11.6237 7.20435 12.2097 7.79041C12.7958 8.37646 13.125 9.17131 13.125 10.0001Z" fill="currentColor"/>
</svg>
