<svg width="26" height="22" viewBox="0 0 20 20" fill="none" xmlns="http://www.w3.org/2000/svg">
<path fill-rule="evenodd" clip-rule="evenodd" d="M2.5 10C2.5 5.85786 5.85786 2.5 10 2.5C12.0232 2.5 13.8594 3.30114 15.2084 4.60349L14.6035 5.17795C13.4068 4.03518 11.7853 3.33338 10 3.33338C6.3181 3.33338 3.33333 6.31815 3.33333 10C3.33333 11.6614 3.94107 13.1809 4.94636 14.3482L4.34145 14.9226C3.19451 13.6054 2.5 11.8838 2.5 10ZM4.92258 15.52C6.25837 16.7493 8.04152 17.5 10 17.5C12.5278 17.5 14.7635 16.2495 16.1222 14.3333H15.0664C13.8437 15.7616 12.0276 16.6667 10 16.6667C8.27941 16.6667 6.71105 16.0149 5.52839 14.9447L4.92258 15.52ZM15.6656 9.88889H14.8547V12.9245C14.6424 13.2761 14.393 13.6028 14.1119 13.8992L13.4061 12.6067C13.4196 12.6008 13.433 12.5948 13.4463 12.5885C13.6879 12.4757 13.8724 12.3137 13.9997 12.1024C14.127 11.8898 14.1906 11.6359 14.1906 11.3407C14.1906 11.047 14.1277 10.7917 14.0018 10.5747C13.8774 10.3562 13.6959 10.1876 13.4571 10.069C13.2199 9.94893 12.9334 9.88889 12.5978 9.88889H10.8526L14.4417 6.48079C15.1872 7.42045 15.6408 8.60215 15.6656 9.88889ZM15.7944 13.2993V13.5586H16.6036C17.1754 12.4998 17.5 11.2878 17.5 10C17.5 8.18093 16.8524 6.51311 15.7751 5.21454L15.1693 5.78986C16.1054 6.93777 16.6667 8.40336 16.6667 10C16.6667 11.2003 16.3495 12.3264 15.7944 13.2993ZM10.8443 9.89682L10.0712 10.631V12.7752C10.0712 13.0992 9.99378 13.3828 9.83898 13.6259C9.68562 13.8689 9.47078 14.0584 9.19444 14.1944C8.91811 14.329 8.59621 14.3963 8.22873 14.3963C7.85981 14.3963 7.53718 14.329 7.26085 14.1944C7.05204 14.0917 6.87834 13.9583 6.73974 13.7944L6.256 14.2538C7.25441 15.1332 8.56491 15.6667 10 15.6667C11.3913 15.6667 12.6655 15.1653 13.6517 14.3333H13.3117L12.4699 12.7578H11.784V14.3333H10.8443V9.89682ZM7.32595 12.0886V9.88889H6.38628V12.7752C6.38628 12.8424 6.38958 12.9078 6.39617 12.9715L5.67253 13.6587C4.83708 12.6715 4.33333 11.3946 4.33333 10C4.33333 6.87043 6.87039 4.33338 10 4.33338C11.4999 4.33338 12.8637 4.91611 13.8773 5.86752L9.64244 9.88889H9.13151V10.3741L7.32595 12.0886ZM7.43171 13.1374C7.43333 13.1403 7.43497 13.1433 7.43663 13.1463C7.51186 13.2779 7.61748 13.3814 7.75347 13.4566C7.88947 13.5318 8.04789 13.5694 8.22873 13.5694C8.41102 13.5694 8.56944 13.5318 8.70399 13.4566C8.83999 13.3814 8.94488 13.2779 9.01866 13.1463C9.09389 13.0146 9.13151 12.8642 9.13151 12.6949V11.5233L7.43171 13.1374ZM12.422 12.0026H11.784V10.6571H12.4176C12.5985 10.6571 12.7482 10.6839 12.8669 10.7374C12.9869 10.7895 13.0759 10.8662 13.1338 10.9674C13.1931 11.0687 13.2228 11.1931 13.2228 11.3407C13.2228 11.4868 13.1931 11.6091 13.1338 11.7075C13.0759 11.8058 12.9877 11.8796 12.869 11.9288C12.7504 11.978 12.6014 12.0026 12.422 12.0026Z" fill="currentColor"/>
</svg>
