<svg width="26" height="22" viewBox="0 0 20 20" fill="none" xmlns="http://www.w3.org/2000/svg">
<path fill-rule="evenodd" clip-rule="evenodd" d="M11.4377 3.62925C12.0548 3.5505 12.6794 3.5505 13.2964 3.62925V2.7605H14.6877V1.323H10.0439V2.7605H11.4377V3.62925ZM11.4999 4.25003C11.7869 4.21379 12.0759 4.19543 12.3652 4.19503L12.3642 4.19409C13.3106 4.19383 14.247 4.38748 15.1156 4.76309C15.9842 5.1387 16.7667 5.6883 17.4147 6.378C18.0628 7.06769 18.5626 7.88284 18.8834 8.77317C19.2042 9.6635 19.3392 10.6101 19.2801 11.5546C19.2209 12.4991 18.9689 13.4215 18.5394 14.2649C18.11 15.1082 17.5124 15.8546 16.7834 16.4581C16.0544 17.0615 15.2094 17.5092 14.3007 17.7735C13.392 18.0378 12.4388 18.1131 11.4999 17.9947H3.81173C3.75797 17.9947 3.70514 17.9807 3.65833 17.9543C3.61153 17.9279 3.57234 17.8898 3.54454 17.8438L2.38361 15.9275C2.35499 15.8801 2.33947 15.826 2.33864 15.7707C2.3378 15.7153 2.35169 15.6608 2.37886 15.6125C2.40604 15.5643 2.44554 15.5242 2.49332 15.4962C2.5411 15.4683 2.59544 15.4535 2.65079 15.4535H5.98329V16.0785H3.20673L3.98798 17.3707H9.36736C7.86492 16.6482 6.67287 15.4089 6.00938 13.8795C5.34588 12.3501 5.25531 10.6329 5.75423 9.04222H0.691732V8.41722H5.98579C6.64625 6.86556 7.84799 5.60673 9.36736 4.87503H2.62486L3.40611 6.16784H5.59704V6.79284H3.23079C3.17701 6.79288 3.12414 6.77903 3.07727 6.75264C3.03041 6.72625 2.99115 6.68822 2.96329 6.64222L1.80298 4.72503C1.77412 4.67763 1.75841 4.6234 1.75745 4.56791C1.7565 4.51243 1.77033 4.45769 1.79754 4.40932C1.82475 4.36096 1.86434 4.32071 1.91226 4.29271C1.96017 4.26472 2.01468 4.24998 2.07017 4.25003H11.4999ZM9.2534 15.7803C10.1745 16.3958 11.2574 16.7243 12.3652 16.7244C13.8503 16.7228 15.2741 16.1321 16.3242 15.0819C17.3744 14.0318 17.9651 12.608 17.9667 11.1228C17.9667 10.015 17.6381 8.93215 17.0226 8.01107C16.4071 7.09 15.5323 6.37212 14.5088 5.94821C13.4854 5.52431 12.3592 5.41341 11.2727 5.62955C10.1861 5.84568 9.18813 6.37914 8.4048 7.16247C7.62147 7.9458 7.08801 8.94382 6.87187 10.0303C6.65574 11.1168 6.76663 12.243 7.19054 13.2665C7.61445 14.29 8.33232 15.1648 9.2534 15.7803ZM16.2806 11.4353V10.8103H17.324C17.2469 9.60308 16.7326 8.46533 15.8773 7.60987C15.022 6.75442 13.8844 6.23987 12.6772 6.16248V7.2056H12.0522V6.16248C10.8451 6.24007 9.70757 6.7547 8.85238 7.61012C7.99719 8.46554 7.48287 9.60317 7.4056 10.8103H8.44872V11.4353H7.4056C7.48272 12.6425 7.99698 13.7803 8.85218 14.6358C9.70739 15.4914 10.845 16.0061 12.0522 16.0837V15.0406H12.6772V16.0837C13.8847 16.0065 15.0226 15.492 15.8782 14.6364C16.7337 13.7808 17.2482 12.6428 17.3253 11.4353H16.2806ZM15.04 13.5093L13.3934 12.2812C13.103 12.5393 12.7271 12.6804 12.3386 12.677C11.95 12.6737 11.5766 12.5262 11.2907 12.2631C11.0048 12 10.8268 11.6401 10.7912 11.2532C10.7556 10.8663 10.865 10.4799 11.0981 10.1691C11.3312 9.85827 11.6715 9.6451 12.0529 9.57093C12.4342 9.49676 12.8296 9.56688 13.1622 9.76769C13.4948 9.9685 13.741 10.2857 13.853 10.6577C13.965 11.0298 13.9349 11.4302 13.7684 11.7812L15.4131 13.0087L15.04 13.5093ZM12.3659 12.0535C12.8797 12.0535 13.2962 11.6369 13.2962 11.1231C13.2962 10.6093 12.8797 10.1928 12.3659 10.1928C11.8521 10.1928 11.4355 10.6093 11.4355 11.1231C11.4355 11.6369 11.8521 12.0535 12.3659 12.0535ZM0 10.8103H3.59375V11.4353H0V10.8103ZM4.39704 13.2041H0.691732V13.8291H4.39704V13.2041ZM16.7334 4.9669C16.564 4.84586 16.3894 4.7319 16.2096 4.62502L16.534 4.15627L16.0059 3.79065L16.6524 2.85315L18.2227 3.93752L17.5765 4.87502L17.0487 4.51034L16.7334 4.9669Z" fill="currentColor" fill-opacity="currentOpacity"/>
</svg>
