<svg width="20" height="20" viewBox="0 0 20 20" fill="none" xmlns="http://www.w3.org/2000/svg">
<g opacity="0.9" clip-path="url(#clip0_3298_5195)">
<path fill-rule="evenodd" clip-rule="evenodd" d="M11.8301 9.05234C11.5547 9.05234 11.3309 8.82852 11.3309 8.55313C11.3309 8.27773 11.5547 8.05391 11.8301 8.05391C12.1055 8.05391 12.3293 8.27813 12.3293 8.55313C12.3293 8.82812 12.1055 9.05234 11.8301 9.05234ZM8.17031 7.66445C7.89492 7.66445 7.67109 7.44023 7.67109 7.16523C7.67109 6.89023 7.89492 6.66563 8.17031 6.66563C8.4457 6.66563 8.66953 6.88984 8.66953 7.16523C8.66953 7.44062 8.44531 7.66445 8.17031 7.66445ZM4.51016 10.1633C4.23516 10.1633 4.01094 9.93906 4.01094 9.66367C4.01094 9.38828 4.23516 9.16445 4.51016 9.16445C4.78516 9.16445 5.00977 9.38867 5.00977 9.66367C5.00977 9.93867 4.78555 10.1633 4.51016 10.1633ZM15.5246 5.54492L14.7281 5.42578C14.6 5.40664 14.4809 5.49492 14.4617 5.62266C14.4426 5.75078 14.5309 5.86992 14.659 5.88945L14.9055 5.92617L12.4363 7.79922C12.2703 7.66563 12.0594 7.58516 11.8301 7.58516C11.5016 7.58516 11.2105 7.75 11.0355 8.00117L9.13125 7.27891C9.13555 7.24141 9.13828 7.20352 9.13828 7.16523C9.13828 6.63125 8.70391 6.19688 8.17031 6.19688C7.63672 6.19688 7.20234 6.63125 7.20234 7.16523C7.20234 7.2832 7.22344 7.39648 7.2625 7.50117L5.15312 8.94102C4.98203 8.78867 4.75703 8.6957 4.50977 8.6957C3.97617 8.6957 3.5418 9.13008 3.5418 9.66367C3.5418 10.1973 3.97617 10.632 4.50977 10.632C5.04336 10.632 5.47813 10.1977 5.47813 9.66367C5.47813 9.5457 5.45664 9.43242 5.41758 9.32773L7.52695 7.88789C7.69805 8.04023 7.92305 8.1332 8.16992 8.1332C8.49844 8.1332 8.78945 7.96836 8.96445 7.71719L10.8687 8.43945C10.8027 9.02305 11.2551 9.52109 11.8297 9.52109C12.3637 9.52109 12.7977 9.08711 12.7977 8.55313C12.7977 8.41797 12.7699 8.28906 12.7195 8.17227L15.1727 6.31172L15.1387 6.53867C15.1195 6.66641 15.2074 6.78594 15.3355 6.80508C15.4633 6.82383 15.5828 6.73594 15.602 6.60781L15.7215 5.81172C15.7406 5.68359 15.6523 5.56406 15.5242 5.54492H15.5246ZM13.0105 3.07266H17.5145C17.9258 3.07266 18.2605 2.73789 18.2605 2.32656C18.2605 1.91523 17.9258 1.58047 17.5145 1.58047H13.0105C12.5992 1.58047 12.2645 1.91523 12.2645 2.32656C12.2645 2.73789 12.5992 3.07266 13.0105 3.07266ZM6.98984 3.07266C7.40117 3.07266 7.73594 2.73789 7.73594 2.32656C7.73594 1.91523 7.40117 1.58047 6.98984 1.58047C6.57852 1.58047 6.24375 1.91484 6.24375 2.32656C6.24375 2.73828 6.57852 3.07266 6.98984 3.07266ZM4.73789 3.07266C5.14922 3.07266 5.48398 2.73789 5.48398 2.32656C5.48398 1.91523 5.14922 1.58047 4.73789 1.58047C4.32656 1.58047 3.9918 1.91484 3.9918 2.32656C3.9918 2.73828 4.32656 3.07266 4.73789 3.07266ZM2.48594 3.07266C2.89727 3.07266 3.23203 2.73789 3.23203 2.32656C3.23203 1.91523 2.89727 1.58047 2.48594 1.58047C2.07461 1.58047 1.73984 1.91484 1.73984 2.32656C1.73984 2.73828 2.07461 3.07266 2.48594 3.07266ZM18.2027 15.4746C18.7199 15.4746 19.1402 15.0539 19.1402 14.5371V4.2625H0.859375V14.5371C0.859375 15.0539 1.28008 15.4746 1.79688 15.4746H3.10234V13.718C3.10234 13.3734 3.38281 13.093 3.72734 13.093H5.29297C5.6375 13.093 5.91797 13.3734 5.91797 13.718V15.4746H6.76172V10.8988C6.76172 10.5539 7.04219 10.2738 7.38672 10.2738H8.95273C9.29727 10.2738 9.57773 10.5539 9.57773 10.8988V15.4746H10.4219V12.4648C10.4219 12.1203 10.7023 11.8402 11.0469 11.8402H12.6129C12.9574 11.8402 13.2379 12.1203 13.2379 12.4648V15.4746H14.0816V9.33242C14.0816 8.98789 14.3621 8.70742 14.7066 8.70742H16.2727C16.6172 8.70742 16.8977 8.98789 16.8977 9.33242V15.4746H18.2027ZM13.2379 15.9434H14.0816V19.1406H13.2379V15.9434ZM9.57773 15.9434H10.4219V19.1406H9.57773V15.9434ZM5.91797 15.9434H6.76172V19.1406H5.91797V15.9434ZM1.79688 0.859375H18.2027C18.7199 0.859375 19.1402 1.28008 19.1402 1.79688V3.79375H0.859375V1.79688C0.859375 1.28008 1.28008 0.859375 1.79688 0.859375ZM18.2027 0.390625H1.79688C1.02148 0.390625 0.390625 1.02148 0.390625 1.79688V14.5371C0.390625 15.3125 1.02148 15.9434 1.79688 15.9434H3.10234V19.1406H1.71055C1.58125 19.1406 1.47617 19.2457 1.47617 19.375C1.47617 19.5043 1.58125 19.6094 1.71055 19.6094H18.2898C18.4191 19.6094 18.5242 19.5043 18.5242 19.375C18.5242 19.2457 18.4191 19.1406 18.2898 19.1406H16.898V15.9434H18.2031C18.9789 15.9434 19.6094 15.3125 19.6094 14.5371V1.79688C19.6094 1.02148 18.9789 0.390625 18.2031 0.390625H18.2027Z" fill="currentColor"/>
</g>
<defs>
<clipPath id="clip0_3298_5195">
<rect width="20" height="20" fill="white"/>
</clipPath>
</defs>
</svg>
